<svg xmlns="http://www.w3.org/2000/svg" xmlns:xlink="http://www.w3.org/1999/xlink" width="175"  height="202"> <!-- 617 316 -->
	<g id="Capa_1" transform="translate(-38.735, -23.607)"><g><path d="M206.068,111.475 C206.068,160.002 169.986,199.342 125.478,199.342 C80.969,199.342 44.887,160.002 44.887,111.475 C44.887,62.947 80.969,23.607 125.478,23.607 C169.986,23.607 206.068,62.947 206.068,111.475" fill="#FDE7D5"></path><path d="M198.498,111.036 C195.461,121.576 188.84,129.421 178.836,133.844 C163.709,140.533 146.546,131.777 141.231,115.06 C137.34,102.821 139.649,93.04 147.987,86.294 C153.418,81.898 159.878,80.317 166.599,79.828 C173.447,79.329 180.182,80.371 186.501,83.132 C188.607,84.051 190.369,85.756 192.288,87.102 L192.309,87.18 C200.56,93.52 201.109,101.974 198.498,111.036 M113.184,84.254 C112.162,84.489 110.861,84.743 110.02,84.324 C105.64,82.147 101.367,79.756 97.057,77.439 C97.211,76.95 97.365,76.462 97.519,75.973 C115.973,74.354 134.43,73.913 152.96,75.932 C152.925,76.625 153.037,77.18 152.871,77.283 C147.774,80.415 143.486,85.661 136.53,84.177 C128.718,82.51 120.967,82.463 113.184,84.254 M83.217,135.313 C80.226,135.584 77.003,134.956 74.083,134.083 C60.123,129.904 49.205,113.233 50.765,98.749 C51.381,93.019 54.336,88.564 58.623,84.89 L58.517,85.026 C70.028,76.255 92.469,77.282 103.357,86.986 C107.643,90.805 110.741,95.394 110.995,101.104 C111.743,117.946 101.71,133.642 83.217,135.313 M206.014,97.38 C206.123,95.175 206.223,93.141 206.323,91.108 C207.449,94.231 209.323,93.839 212.208,92.738 C211.438,91.023 211.154,88.64 209.972,88.046 C203.378,84.73 196.692,81.521 189.803,78.889 C175.904,73.577 161.137,72.364 146.522,71.878 C128.778,71.288 110.971,71.862 93.218,72.581 C78.788,73.166 64.36,74.48 51.247,81.622 C48.323,83.214 45.283,84.687 42.138,85.751 C38.77,86.89 38.529,88.932 39.644,92.582 C41.397,91.634 42.858,90.845 44.405,90.009 L44.405,94.999 C42.939,94.324 41.275,93.558 39.612,92.794 C39.32,93.112 39.027,93.432 38.735,93.75 C39.236,95.143 39.567,96.631 40.27,97.914 C42.007,101.082 44.097,104.065 45.709,107.291 C47.938,111.753 49.529,116.557 51.985,120.879 C56.768,129.293 64.093,135.12 73.153,138.136 C81.681,140.975 90.279,139.557 97.959,135.005 C109.312,128.274 114.703,117.49 117.041,104.9 C117.624,101.761 117.487,98.875 115.563,96.027 C113.437,92.879 114.267,90.906 117.977,90.618 C122.827,90.241 127.749,90.266 132.6,90.641 C136.165,90.918 136.676,92.843 135,96.208 C134.081,98.055 133.059,100.214 133.193,102.155 C133.707,109.625 135.94,116.683 139.814,123.115 C147.07,135.163 157.799,141.025 171.828,139.686 C181.249,138.788 188.704,133.646 194.907,126.656 C200.086,120.819 202.935,113.774 205.606,106.576 C206.525,104.103 208.488,102.034 209.817,99.691 C210.593,98.326 211.061,96.785 211.667,95.322 C211.26,95.023 210.853,94.724 210.446,94.427 C209.037,95.365 207.628,96.305 206.014,97.38" fill="#2A234B"></path><path d="M132.38,179.353 C138.614,179.353 143.375,180.144 147.718,179.138 C152.356,178.064 158.758,176.439 160.569,173.026 C164.367,165.868 159.681,159.999 152.858,157.037 C133.809,148.767 114.388,148.947 95.483,157.078 C92.346,158.427 89.914,164.502 89.666,168.548 C89.446,172.124 92.212,178.658 94.559,179.098 C101.92,180.483 109.706,179.608 118.242,179.608 C117.235,175.353 116.561,172.501 115.634,168.588 L136.187,168.588 C135.181,171.028 134.585,172.324 134.111,173.663 C133.616,175.061 133.239,176.5 132.38,179.353 M206.068,113.219 C204.808,144.059 202.21,175.06 179.402,198.712 C166.099,212.508 149.009,223.283 129.502,224.697 C103.807,226.559 82.276,212.727 67.192,194.438 C48.439,171.7 44.635,142.317 44.887,112.86 C50.812,128.629 56.713,144.355 74.088,150.751 C77.971,152.181 84.013,152.478 87.17,150.41 C115.477,131.863 132.4,131.521 160.04,150.221 C165.954,154.222 170.587,155.252 177.441,150.283 C196.706,136.312 198.298,135.152 206.068,113.219" fill="#1A1919"></path><path d="M90.294,32.483 C90.294,32.483 121.816,12.569 160.621,32.483 C160.621,32.483 145.444,27.587 136.633,32.483 C127.821,37.379 113.68,32.972 111.939,32.483 C110.197,31.994 90.294,32.483 90.294,32.483" fill="#1A1919"></path></g></g>
</svg>